Lesbians play with cucumber in kitchen - weDoPorn.com..


Sorry I don't have a better title, the video had no title I could find :|


Format                           : MPEG-PS
File size                        : 844 MiB
Duration                         : 18mn 43s
Overall bit rate                 : 6 298 Kbps

Video
ID                               : 224 (0xE0)
Format                           : MPEG Video
Format version                   : Version 2
Format profile                   : Main@Main
Format settings, Matrix          : Default
Duration                         : 18mn 43s
Bit rate mode                    : Variable
Bit rate                         : 5 824 Kbps
Nominal bit rate                 : 8 500 Kbps
Width                            : 720 pixels
Height                           : 576 pixels
Display aspect ratio             : 4/3
Frame rate                       : 25.000 fps
Standard                         : PAL
Colorimetry                      : 4:2:0
Scan type                        : Interlaced
Scan order                       : Top Field First
Bits/(Pixel*Frame)               : 0.562
Stream size                      : 780 MiB (92%)

Audio
ID                               : 192 (0xC0)
Format                           : MPEG Audio
Format version                   : Version 1
Format profile                   : Layer 2
Duration                         : 18mn 43s
Bit rate mode                    : Constant
Bit rate                         : 224 Kbps
Channel(s)                       : 2 channels
Sampling rate                    : 48.0 KHz
Resolution                       : 16 bits
Stream size                      : 30.0 MiB (4%)









Enjoy, and seed please!